<?xml version="1.0" encoding="utf-8"?>
<svg xmlns="http://www.w3.org/2000/svg" fill="none" viewBox="0 0 248 30">
<path fill-rule="evenodd" clip-rule="evenodd" d="M92.0991 14.4172C91.5268 13.9671 89.3894 12.8528 87.9569 12.106C87.2728 11.7494 86.7495 11.4765 86.634 11.3998C86.2744 11.1648 85.9804 10.8452 85.752 10.4434C85.5211 10.0415 85.3923 9.52217 85.3656 8.88297V5.95018C85.3656 5.59063 85.4506 5.26398 85.6232 4.97258C85.7957 4.68118 86.0314 4.44619 86.3327 4.26524C86.634 4.08429 87.0423 3.99499 87.5599 3.99499C88.4784 3.99499 89.1224 4.25114 89.4966 4.76578C89.8684 5.28043 90.0555 5.98073 90.0555 6.86668V9.50572H94.5315V6.86668C94.5315 4.70233 93.9362 3.01739 92.7455 1.80949C91.5548 0.601598 89.827 0 87.5599 0C86.1529 0 84.9355 0.227949 83.9027 0.686198C82.87 1.14445 82.0729 1.83769 81.514 2.76594C80.9551 3.69654 80.6757 4.75638 80.6757 5.95018V8.88062C80.6757 10.1285 80.8555 11.1625 81.2127 11.9803C81.5724 12.7981 82.0875 13.4937 82.7631 14.06C83.2307 14.4551 85.6026 15.7075 87.1663 16.5331C87.8536 16.896 88.3848 17.1764 88.5294 17.2654C89.0033 17.5568 89.3605 17.9375 89.6059 18.4098C89.8489 18.8822 89.9728 19.519 89.9728 20.3251V23.5469C89.9728 24.2684 89.7785 24.8582 89.3921 25.3165C89.0057 25.7747 88.4249 26.0027 87.6498 26.0027C86.9888 26.0027 86.4664 25.864 86.08 25.5867C85.6936 25.3094 85.4118 24.9358 85.2417 24.4634C85.0691 23.9911 84.9841 23.4929 84.9841 22.9641V20.0337H80.3792V22.9641C80.3792 24.4893 80.6514 25.7794 81.1957 26.8346C81.74 27.8897 82.5589 28.6793 83.6476 29.2057C84.7386 29.7321 86.0727 29.9953 87.6498 29.9953C88.9984 29.9953 90.2329 29.7321 91.3507 29.2057C92.4684 28.6793 93.3019 27.9438 93.8463 26.9991C94.3906 26.0567 94.6627 24.9452 94.6627 23.6691V20.2381C94.6627 18.9057 94.4465 17.7683 94.0163 16.8259C93.5838 15.8883 92.9447 15.0822 92.0991 14.4172ZM6.05068 0.458248L9.59603 14.6804L13.1414 0.458248H19.1921V29.4994H14.5022L14.8886 8.94877L9.59603 27.4056L4.30351 8.94877L4.68988 29.4994H0V0.458248H6.05068ZM34.3504 7.94062C34.8509 9.07802 35.1036 10.5209 35.1036 12.2693V21.9654C35.1036 23.7138 34.8509 25.1849 34.3504 26.3763C33.8473 27.5701 33.0868 28.4725 32.0686 29.0812C31.0504 29.6921 29.7795 29.9976 28.2608 29.9976C26.7979 29.9976 25.5562 29.6921 24.538 29.0812C23.5199 28.4702 22.7447 27.5772 22.215 26.3975C21.6828 25.2178 21.4179 23.742 21.4179 21.9654V12.2693C21.4179 10.5491 21.6828 9.11327 22.215 7.96177C22.7447 6.81028 23.5345 5.92198 24.5818 5.29923C25.6291 4.67413 26.8563 4.36393 28.2608 4.36393C29.782 4.36393 31.0504 4.67648 32.0686 5.29923C33.0892 5.92198 33.8498 6.80323 34.3504 7.94062ZM248 4.86213V8.56572H244.384V29.4995H239.779V8.56572H236.122V4.86213H248ZM30.3287 9.66787C30.5012 10.1543 30.5863 10.77 30.5863 11.5197V22.7573C30.5863 23.561 30.494 24.2073 30.3068 24.6914C30.1197 25.1778 29.8694 25.5397 29.5535 25.7747C29.2376 26.0097 28.8075 26.1272 28.2632 26.1272C27.7748 26.1272 27.3738 26.0097 27.0579 25.7747C26.7421 25.5374 26.4918 25.1778 26.3047 24.6914C26.1175 24.2073 26.0252 23.5634 26.0252 22.7573V11.5197C26.0252 10.77 26.1175 10.1543 26.3047 9.66787C26.4918 9.18377 26.7421 8.80777 27.0579 8.54457C27.3738 8.28137 27.7748 8.14977 28.2632 8.14977C28.8075 8.14977 29.2449 8.28137 29.5754 8.54457C29.9059 8.80777 30.1562 9.18377 30.3287 9.66787ZM223.569 29.4995H234.113V25.629H228.174V18.6378H233.554V14.9741H228.174V8.60567H234.113V4.86213H223.569V29.4995ZM46.5197 18.8822L46.5392 16.8471L46.4954 4.86213H50.9277V29.4995H46.0653L41.7618 15.6674V29.4995H37.3295V4.86213H42.1919L46.5197 18.8822ZM124.559 7.35782C125.059 8.24612 125.312 9.38352 125.312 10.77V15.9329C125.312 17.3476 125.069 18.5132 124.581 19.4297C124.092 20.3462 123.405 21.0042 122.515 21.4061C121.626 21.8079 120.549 22.01 119.288 22.01H117.006V29.5018H112.445V4.86213H119.159C120.421 4.86213 121.512 5.05718 122.43 5.44493C123.346 5.83268 124.056 6.47188 124.559 7.35782ZM120.19 9.14852C120.535 9.53627 120.707 10.0509 120.707 10.6878V15.9729C120.707 16.6967 120.535 17.2442 120.19 17.6179C119.847 17.9915 119.271 18.1795 118.469 18.1795H117.006V8.56572H118.469C119.271 8.56572 119.845 8.76077 120.19 9.14852ZM53.2532 29.4995H63.797V25.629H57.8581V18.6378H63.2381V14.9741H57.8581V8.60567H63.797V4.86213H53.2532V29.4995ZM138.082 29.4995H127.538V4.86213H138.082V8.60567H132.143V14.9741H137.523V18.6378H132.143V25.629H138.082V29.4995ZM222.106 4.86213H216.986L212.469 16.4076V4.90443H207.951V29.4995H212.469V23.3119L214.481 20.2992L217.462 29.4995H222.541L217.467 15.5475L222.106 4.86213ZM69.9886 4.86213L72.2048 17.4722L74.5497 4.86213H79.1983L74.4646 22.715V29.4995H69.9035V22.715L65.255 4.86213H69.9886ZM187.204 4.90443L191.291 29.4995H186.643L186.052 25.2554H181.43L180.833 29.4995H176.272L180.317 4.90443H187.204ZM183.848 9.35767L185.53 21.4672H181.967L183.676 9.35767H183.848ZM105.603 23.4224C105.603 24.0334 105.53 24.5316 105.386 24.9217C105.243 25.3118 105.019 25.6079 104.72 25.817C104.419 26.0262 104.055 26.1296 103.622 26.1296C103.049 26.1296 102.626 26.0262 102.354 25.817C102.081 25.6079 101.873 25.3118 101.729 24.9217C101.586 24.5339 101.513 24.0334 101.513 23.4224V4.86213H96.908V22.9242C96.908 24.5057 97.151 25.817 97.6395 26.8581C98.1279 27.8991 98.8593 28.6817 99.8337 29.2104C100.808 29.7368 102.072 30 103.62 30C105.083 30 106.295 29.7227 107.255 29.1681C108.215 28.6135 108.934 27.8239 109.405 26.797C109.879 25.77 110.115 24.4799 110.115 22.9265V4.86213H105.598V23.4224H105.603ZM205.623 14.2269V10.4387C205.623 8.57982 205.057 7.18627 203.925 6.25568C202.79 5.32743 201.249 4.86213 199.298 4.86213H192.757V29.4995H197.318V19.8856H198.997C199.714 19.8856 200.231 20.0595 200.547 20.405C200.863 20.7528 201.021 21.204 201.021 21.7586V29.4995H205.626V23.2508C205.626 21.392 205.057 19.9984 203.925 19.0678C203.762 18.9339 203.587 18.8117 203.407 18.6965L203.422 18.7012C203.971 18.3323 204.425 17.8811 204.785 17.3476C205.344 16.5157 205.623 15.4747 205.623 14.2269ZM198.997 16.3489C199.714 16.3489 200.229 16.175 200.547 15.8295C200.863 15.4841 201.021 15.0047 201.021 14.3937V10.4387C201.021 9.88407 200.863 9.43287 200.547 9.08507C200.231 8.73962 199.714 8.56572 198.997 8.56572H197.318V16.3489H198.997ZM153.272 14.2269V10.4387C153.272 8.57982 152.705 7.18627 151.573 6.25568C150.438 5.32743 148.898 4.86213 146.946 4.86213H140.405V29.4995H144.964V19.8856H146.643C147.36 19.8856 147.877 20.0595 148.193 20.405C148.509 20.7528 148.667 21.204 148.667 21.7586V29.4995H153.274V23.2508C153.274 21.392 152.705 19.9984 151.573 19.0678C151.41 18.9339 151.235 18.8117 151.056 18.6965L151.07 18.7012C151.619 18.3323 152.074 17.8811 152.433 17.3476C152.992 16.5157 153.272 15.4747 153.272 14.2269ZM146.645 16.3489C147.362 16.3489 147.877 16.175 148.195 15.8295C148.511 15.4841 148.669 15.0047 148.669 14.3937V10.4387C148.669 9.88407 148.511 9.43287 148.195 9.08507C147.88 8.73962 147.362 8.56572 146.645 8.56572H144.966V16.3489H146.645ZM161.67 0.458248L165.217 14.6804L168.76 0.458248H174.811V29.4994H170.121L170.508 8.94877L165.215 27.4056L159.923 8.94877L160.309 29.4994H155.619V0.458248H161.67Z" fill="#291D4C"/>
</svg>