<?xml version="1.0" encoding="utf-8"?>
<svg xmlns="http://www.w3.org/2000/svg" width="100" height="100" viewBox="0 0 100 100" fill="none">
<g clip-path="url(#clip0_2235_5493)">
<rect width="100" height="100" fill="white"/>
<rect width="109" height="113" fill="#291D4C"/>
<path fill-rule="evenodd" clip-rule="evenodd" d="M23.1485 37.1169H26.4474L26.1757 22.1738L29.8985 35.5944L33.6214 22.1738L33.3496 37.1169H36.6486V16H32.3924L29.9002 26.3415L27.4047 16H23.1485V37.1169ZM43.0277 18.84C44.0961 18.84 44.99 19.0656 45.7062 19.5201C46.4224 19.9746 46.9574 20.6154 47.3113 21.4407C47.6634 22.2695 47.8412 23.317 47.8412 24.5883V31.6387C47.8412 32.91 47.6634 33.9797 47.3113 34.846C46.9574 35.7141 46.4224 36.3685 45.7062 36.8128C44.99 37.2571 44.0978 37.4792 43.0277 37.4792C41.9987 37.4792 41.1253 37.2571 40.4091 36.8128C39.6929 36.3702 39.1476 35.7192 38.775 34.8614C38.4006 34.0036 38.2143 32.9305 38.2143 31.6387V24.5883C38.2143 23.3375 38.4006 22.2934 38.775 21.4561C39.1476 20.6205 39.7031 19.9746 40.4398 19.5201C41.1766 19.0673 42.038 18.84 43.0277 18.84ZM42.6022 42.175H45.7764V55.3086C45.7764 56.4381 45.6105 57.3762 45.2772 58.1229C44.9439 58.8696 44.4397 59.4438 43.7645 59.847C43.0876 60.2503 42.2364 60.452 41.2074 60.452C40.1168 60.452 39.2297 60.2606 38.5443 59.8778C37.8588 59.495 37.3426 58.9243 37.0007 58.1673C36.6572 57.4104 36.4862 56.4569 36.4862 55.3069V42.1733H39.7254V55.6691C39.7254 56.1134 39.775 56.4757 39.8775 56.7593C39.9784 57.043 40.1237 57.2583 40.3168 57.4104C40.5082 57.5624 40.8057 57.6376 41.2091 57.6376C41.5116 57.6376 41.7697 57.5624 41.9817 57.4104C42.1936 57.2583 42.3492 57.043 42.45 56.7593C42.5509 56.4774 42.6022 56.1134 42.6022 55.6691V42.175ZM54.434 42.5986C53.7879 42.3167 53.0204 42.1749 52.1333 42.1749H47.4104V60.0896H50.6188V54.642H52.2239C53.111 54.642 53.8682 54.4951 54.4938 54.2029C55.1194 53.9107 55.6032 53.4305 55.9467 52.7658C56.2903 52.0994 56.4612 51.2535 56.4612 50.2232V46.4707C56.4612 45.4625 56.2835 44.6355 55.9314 43.9896C55.5792 43.3454 55.0801 42.8806 54.434 42.5986ZM53.2238 50.254C53.2238 50.7786 53.1025 51.1767 52.8597 51.4501C52.617 51.7218 52.2136 51.8585 51.6496 51.8585H50.6205V44.868H51.6496C52.2136 44.868 52.6187 45.0098 52.8597 45.2917C53.1025 45.5737 53.2238 45.9479 53.2238 46.411V50.254ZM65.4454 42.1749H58.0287V60.0896H65.4454V57.2752H61.2678V52.1917H65.0523V49.5294H61.2678V44.8986H65.4454V42.1749ZM71.6792 42.1749C73.0518 42.1749 74.1355 42.5132 74.9338 43.1882C75.7303 43.8648 76.1303 44.8781 76.1286 46.2298V48.9843C76.1286 49.8917 75.932 50.6486 75.5389 51.2535C75.2859 51.6414 74.9662 51.9695 74.5799 52.2378L74.5697 52.2344C74.6962 52.3181 74.8192 52.407 74.9338 52.5044C75.732 53.181 76.1303 54.1943 76.1303 55.546V60.0896H72.8911V54.4609C72.8911 54.0576 72.78 53.7295 72.5578 53.4767C72.3339 53.2255 71.9715 53.099 71.4673 53.099H70.2861V60.0896H67.0778V42.1749H71.6792ZM70.2879 50.5238V44.8661H71.469C71.9733 44.8661 72.3356 44.9925 72.5595 45.2437C72.7818 45.4966 72.8929 45.8247 72.8929 46.2279V49.1021C72.8929 49.5464 72.7818 49.895 72.5595 50.1461C72.3373 50.399 71.9733 50.5238 71.469 50.5238H70.2879ZM44.6618 32.2146C44.6618 32.8007 44.5969 33.2689 44.4653 33.6209C44.3336 33.9747 44.1576 34.2361 43.9354 34.4087C43.7132 34.5796 43.4106 34.665 43.0277 34.665C42.6842 34.665 42.4021 34.5796 42.1799 34.4087C41.9577 34.2378 41.7816 33.9747 41.65 33.6209C41.5184 33.2689 41.4535 32.799 41.4535 32.2146V24.045C41.4535 23.4999 41.5184 23.0522 41.65 22.6985C41.7816 22.3465 41.9577 22.0731 42.1799 21.8817C42.4021 21.6903 42.6842 21.5946 43.0277 21.5946C43.4106 21.5946 43.7183 21.6903 43.9508 21.8817C44.1832 22.0731 44.3593 22.3465 44.4806 22.6985C44.602 23.0522 44.6618 23.4999 44.6618 24.045V32.2146ZM58.9722 19.2023H55.8544L55.8852 27.917L55.8715 29.3968L52.8272 19.2023H49.4069V37.117H52.5246V27.0592L55.5518 37.117H58.9722V19.2023ZM60.6063 19.2023H68.023V21.9261H63.8455V26.5569H67.6299V29.2191H63.8455V34.3027H68.023V37.117H60.6063V19.2023ZM78.8583 19.2023H75.5884L73.9389 28.3716L72.38 19.2023H69.0503L72.3202 32.1838V37.117H75.5286V32.1838L78.8583 19.2023ZM82.9795 65.1166V67.8096H80.4361V83.0313H77.1969V67.8096H74.6244V65.1166H82.9795ZM73.2125 65.1166H65.7958V83.0313H73.2125V80.217H69.0349V75.1334H72.8193V72.4712H69.0349V67.8404H73.2125V65.1166ZM61.4985 72.8864L65.0676 83.0313H61.4951L59.3978 76.3415L57.9825 78.5322V83.0313H54.8049V65.1457H57.9825V73.5118L61.1601 65.1166H64.7616L61.4985 72.8864ZM32.5274 83.0298L35.3734 65.1458H40.2176L43.0927 83.0298H39.8228L39.4074 79.9437H36.1563L35.7358 83.0298H32.5274ZM36.5323 77.1893L37.734 68.384H37.8553L39.0382 77.1893H36.5323ZM48.7214 65.1166C50.094 65.1166 51.1777 65.455 51.976 66.1299C52.7742 66.8066 53.1725 67.8199 53.1708 69.1715V71.9261C53.1708 72.8334 52.9742 73.5904 52.5811 74.1953C52.3281 74.5832 52.0085 74.9113 51.6222 75.1796L51.6119 75.1761C51.7384 75.2599 51.8615 75.3487 51.976 75.4461C52.7742 76.1228 53.1725 77.1361 53.1725 78.4877V83.0313H49.9333V77.4027C49.9333 76.9994 49.8222 76.6713 49.6 76.4184C49.3761 76.1672 49.0137 76.0408 48.5095 76.0408H47.3284V83.0313H44.12V65.1166H48.7214ZM47.3301 73.4674V67.8097H48.5112C49.0155 67.8097 49.3778 67.9362 49.6018 68.1874C49.824 68.4403 49.9351 68.7683 49.9351 69.1716V72.0458C49.9351 72.49 49.824 72.8386 49.6018 73.0898C49.3796 73.3427 49.0155 73.4674 48.5112 73.4674H47.3301ZM32.5702 59.8778C31.7839 60.2606 30.9156 60.452 29.9669 60.452C28.8576 60.452 27.9192 60.2606 27.1517 59.8778C26.3842 59.4951 25.8099 58.9192 25.427 58.1537C25.0441 57.3865 24.8527 56.4501 24.8527 55.3394V53.2085H28.0918V55.3394C28.0918 55.7221 28.1516 56.0861 28.273 56.4295C28.3944 56.773 28.5909 57.0447 28.8627 57.2463C29.1345 57.448 29.5037 57.5488 29.9669 57.5488C30.5122 57.5488 30.9207 57.383 31.1925 57.0498C31.4643 56.7166 31.601 56.2894 31.601 55.7631V53.4204C31.601 52.836 31.5156 52.3712 31.3429 52.0278C31.172 51.6843 30.919 51.4075 30.5857 51.1956C30.4839 51.1309 30.1103 50.927 29.6268 50.6631C28.5269 50.0627 26.8584 49.1521 26.5295 48.8648C26.0543 48.4513 25.6919 47.9472 25.439 47.3526C25.186 46.7579 25.0612 46.0061 25.0612 45.0987V42.9679C25.0612 42.1015 25.2578 41.3292 25.6509 40.6525C26.0441 39.9775 26.6047 39.4718 27.3312 39.1403C28.0576 38.807 28.9157 38.6413 29.9037 38.6413C31.4985 38.6413 32.7138 39.0804 33.5514 39.957C34.3889 40.8353 34.8077 42.0605 34.8077 43.6343V45.5533H31.6609V43.6343C31.6609 42.9884 31.5292 42.4792 31.2677 42.1067C31.0045 41.7342 30.5515 41.5462 29.9054 41.5462C29.5413 41.5462 29.2541 41.6111 29.0422 41.7427C28.8302 41.8743 28.6644 42.0452 28.5431 42.257C28.4217 42.4689 28.3619 42.7064 28.3619 42.9679V45.0987C28.3824 45.5635 28.473 45.9411 28.6337 46.2333C28.7943 46.5255 29.0012 46.7579 29.2542 46.9288C29.3339 46.9827 29.6863 47.1726 30.1501 47.4225C31.1577 47.9654 32.6911 48.7917 33.0984 49.1229C33.6932 49.6064 34.1428 50.1926 34.4453 50.8778C34.7479 51.563 34.9 52.39 34.9 53.3589V55.8537C34.9 56.7816 34.7086 57.5881 34.3257 58.275C33.9411 58.9585 33.3565 59.4934 32.5702 59.8778ZM31.5019 61.9127H27.2457L24.7518 72.2542L22.2562 61.9127H18V83.0296H21.3007L21.0289 68.0865L24.7518 81.5071L28.4747 68.0865L28.2029 83.0296H31.5019V61.9127Z" fill="white"/>
</g>
<defs>
<clipPath id="clip0_2235_5493">
<rect width="100" height="100" fill="white"/>
</clipPath>
</defs>
</svg>